<?xml version="1.0" encoding="utf-8"?>
<!-- Generator: Adobe Illustrator 19.0.0, SVG Export Plug-In . SVG Version: 6.00 Build 0)  -->
<svg version="1.1" id="Layer_2" xmlns="http://www.w3.org/2000/svg" xmlns:xlink="http://www.w3.org/1999/xlink" x="0px" y="0px"
	 viewBox="0 0 1200 1200" style="enable-background:new 0 0 1200 1200;" xml:space="preserve">
<style type="text/css">
	.st0{fill:#0E3140;}
	.st1{fill:#E52329;}
</style>
<rect id="XMLID_6_" x="552.2" y="1072.3" class="st0" width="97.6" height="62.7"/>
<rect id="XMLID_7_" x="552.2" y="884.9" class="st0" width="97.6" height="50.2"/>
<rect id="XMLID_8_" x="552.2" y="691.2" class="st0" width="97.6" height="50.2"/>
<rect id="XMLID_9_" x="552.2" y="497.5" class="st0" width="97.6" height="50.2"/>
<path id="XMLID_11_" class="st0" d="M906.3,849.7H295.7c-20.2,0-36.6-16.4-36.6-36.6v0c0-20.2,16.4-36.6,36.6-36.6h610.5
	c20.2,0,36.6,16.4,36.6,36.6v0C942.9,833.3,926.5,849.7,906.3,849.7z"/>
<path id="XMLID_12_" class="st0" d="M989.6,1043.4H212.4c-20.2,0-36.6-16.4-36.6-36.6v0c0-20.2,16.4-36.6,36.6-36.6h777.2
	c20.2,0,36.6,16.4,36.6,36.6v0C1026.2,1027,1009.8,1043.4,989.6,1043.4z"/>
<path id="XMLID_13_" class="st0" d="M816.5,656H385.5c-20.2,0-36.6-16.4-36.6-36.6v0c0-20.2,16.4-36.6,36.6-36.6h431.1
	c20.2,0,36.6,16.4,36.6,36.6v0C853.1,639.6,836.8,656,816.5,656z"/>
<path id="XMLID_14_" class="st0" d="M726,462.3H476c-20.2,0-36.6-16.4-36.6-36.6v0c0-20.2,16.4-36.6,36.6-36.6H726
	c20.2,0,36.6,16.4,36.6,36.6v0C762.6,446,746.2,462.3,726,462.3z"/>
<circle id="XMLID_3_" class="st1" cx="601" cy="179.9" r="113.9"/>
<path id="XMLID_16_" class="st0" d="M600.3,323.5c-16.6,0-32.6-2.2-47.9-6.3v34.9h97.3v-35.4C633.9,321.2,617.4,323.5,600.3,323.5z"
	/>
</svg>
